<svg width="24" height="24" viewBox="0 0 24 24" fill="none" xmlns="http://www.w3.org/2000/svg">
<path d="M7.49999 9H3.49999C3.36738 9 3.24021 9.05268 3.14644 9.14645C3.05267 9.24022 2.99999 9.3674 2.99999 9.5V21.5C2.99999 21.6326 3.05267 21.7598 3.14644 21.8536C3.24021 21.9473 3.36738 22 3.49999 22H7.49999C7.6326 22 7.75978 21.9473 7.85355 21.8536C7.94731 21.7598 7.99999 21.6326 7.99999 21.5V9.5C7.99999 9.3674 7.94731 9.24022 7.85355 9.14645C7.75978 9.05268 7.6326 9 7.49999 9ZM6.99999 21H3.99999V10H6.99999V21ZM18 9C16.915 9 15.86 9.358 15 10.019V9.5C15 9.3674 14.9473 9.24022 14.8535 9.14645C14.7598 9.05268 14.6326 9 14.5 9H10.5C10.3674 9 10.2402 9.05268 10.1464 9.14645C10.0527 9.24022 9.99999 9.3674 9.99999 9.5V21.5C9.99999 21.6326 10.0527 21.7598 10.1464 21.8536C10.2402 21.9473 10.3674 22 10.5 22H14.5C14.6326 22 14.7598 21.9473 14.8535 21.8536C14.9473 21.7598 15 21.6326 15 21.5V16C15 15.6022 15.158 15.2206 15.4393 14.9393C15.7206 14.658 16.1022 14.5 16.5 14.5C16.8978 14.5 17.2793 14.658 17.5607 14.9393C17.842 15.2206 18 15.6022 18 16V21.5C18 21.6326 18.0527 21.7598 18.1464 21.8536C18.2402 21.9473 18.3674 22 18.5 22H22.5C22.6326 22 22.7598 21.9473 22.8535 21.8536C22.9473 21.7598 23 21.6326 23 21.5V14C22.9984 12.6744 22.4711 11.4036 21.5338 10.4662C20.5964 9.52889 19.3256 9.00159 18 9ZM22 21H19V16C19 15.337 18.7366 14.7011 18.2678 14.2322C17.7989 13.7634 17.163 13.5 16.5 13.5C15.837 13.5 15.2011 13.7634 14.7322 14.2322C14.2634 14.7011 14 15.337 14 16V21H11V10H14V11.203C14 11.3066 14.0321 11.4076 14.092 11.4921C14.1518 11.5766 14.2364 11.6404 14.3341 11.6748C14.4318 11.7092 14.5378 11.7123 14.6373 11.6839C14.7369 11.6554 14.8252 11.5968 14.89 11.516C15.4035 10.8651 16.1074 10.3906 16.9034 10.1588C17.6994 9.92701 18.548 9.94939 19.3307 10.2228C20.1134 10.4963 20.7913 11.0072 21.2698 11.6843C21.7483 12.3614 22.0035 13.1709 22 14V21ZM5.86799 2.002C5.75047 1.99441 5.6326 1.99374 5.51499 2C5.14076 1.97454 4.76529 2.02619 4.41183 2.15174C4.05837 2.2773 3.73445 2.47409 3.46014 2.72993C3.18584 2.98577 2.96698 3.29521 2.81713 3.63907C2.66728 3.98294 2.58963 4.35391 2.58899 4.729C2.58589 5.10018 2.65907 5.46804 2.80399 5.80977C2.94892 6.1515 3.16251 6.45981 3.43151 6.71559C3.7005 6.97137 4.01918 7.16916 4.36777 7.29669C4.71637 7.42423 5.08744 7.4788 5.45799 7.457H5.48599C5.84417 7.48209 6.20379 7.43637 6.5443 7.32248C6.88482 7.20858 7.19956 7.02873 7.47057 6.79319C7.74158 6.55766 7.96354 6.27105 8.12378 5.94973C8.28402 5.62842 8.37941 5.27868 8.40449 4.9205C8.42957 4.56232 8.38386 4.20271 8.26997 3.8622C8.15607 3.52168 7.97622 3.20694 7.74068 2.93593C7.50515 2.66492 7.21854 2.44296 6.89722 2.28271C6.57591 2.12247 6.22617 2.02709 5.86799 2.002ZM5.83299 6.46C5.71766 6.47067 5.60199 6.46967 5.48599 6.457H5.45799C5.21732 6.4751 4.97552 6.44281 4.74803 6.36219C4.52054 6.28158 4.31236 6.15442 4.13678 5.98883C3.96119 5.82324 3.82207 5.62285 3.72828 5.40047C3.6345 5.17808 3.58812 4.93859 3.59209 4.69727C3.59607 4.45595 3.65033 4.21811 3.75139 3.99894C3.85246 3.77977 3.99811 3.58408 4.17906 3.42437C4.36001 3.26465 4.57227 3.14442 4.80229 3.07136C5.03232 2.99829 5.27505 2.97399 5.51499 3C5.97382 2.95783 6.4306 3.09966 6.78486 3.39428C7.13911 3.6889 7.36182 4.11218 7.40399 4.571C7.44616 5.02983 7.30434 5.48661 7.00972 5.84087C6.7151 6.19512 6.29182 6.41783 5.83299 6.46Z" fill="white"/>
</svg>
